{"title":"G I Joe Retaliation (2013) DVDRip X264","uid":8653892,"size":1339379618,"categoryP":"video","categoryS":"movies","magnet":"?xt=urn:btih:9d3834241a97e2cd9d2d05b30ecd6d781f2a72ca&amp;dn=G+I+Joe+Retaliation+%282013%29+DVDRip+X264&amp;tr=udp%3A%2F%2Ftracker.openbittorrent.com%3A80&amp;tr=udp%3A%2F%2Fopen.demonii.com%3A1337&amp;tr=udp%3A%2F%2Ftracker.coppersurfer.tk%3A6969&amp;tr=udp%3A%2F%2Fexodus.desync.com%3A6969","seeders":1,"leechers":0,"uploader":"EpicJose","files":4,"time":1373169771,"description":"=============================================================================\nCome have a beer with us :D : http://www.torrentii.com\n=============================================================================\n\n\nG I Joe Retaliation (2013) DVDRip X264 AAC - BiTo\n   &lt;a href=&quot;\nhttp://www.imdb.com/title/tt1583421/&quot; rel=&quot;nofollow&quot; target=&quot;_NEW&quot;&gt;\nhttp://www.imdb.com/title/tt1583421/&lt;/a&gt;\n\nThe G.I. Joes are not only fighting their mortal enemy Cobra; they are forced to contend with threats from within the government that jeopardize their very existence.\n\nSource: DVD9 PAL thx\nSample: Yes\nCodec: X264\nContainer: MKv\nAudio : Ac3 5 Channel @ English\nSubs: Eng Srt Included\n\nVideo\nID                                       : 1\nFormat                                   : AVC\nFormat/Info                              : Advanced Video Codec\nFormat profile                           : &lt;a class=&quot;__cf_email__&quot; href=&quot;/cdn-cgi/l/email-protection&quot; data-cfemail=&quot;cf82aea6a18f83fde1fd&quot;&gt;[email&amp;#160;protected]&lt;/a&gt;&lt;script cf-hash='f9e31' type=&quot;text/javascript&quot;&gt;\n/* &lt;![CDATA[ */!function(){try{var t=&quot;currentScript&quot;in document?document.currentScript:function(){for(var t=document.getElementsByTagName(&quot;script&quot;),e=t.length;e--;)if(t[e].getAttribute(&quot;cf-hash&quot;))return t[e]}();if(t&amp;&amp;t.previousSibling){var e,r,n,i,c=t.previousSibling,a=c.getAttribute(&quot;data-cfemail&quot;);if(a){for(e=&quot;&quot;,r=parseInt(a.substr(0,2),16),n=2;a.length-n;n+=2)i=parseInt(a.substr(n,2),16)^r,e+=String.fromCharCode(i);e=document.createTextNode(e),c.parentNode.replaceChild(e,c)}}}catch(u){}}();/* ]]&gt; */&lt;/script&gt;\nFormat settings, CABAC                   : Yes\nFormat settings, ReFrames                : 4 frames\nCodec ID                                 : V_MPEG4/ISO/AVC\nDuration                                 : 1h 45mn\nBit rate                                 : 1 200 Kbps\nWidth                                    : 720 pixels\nHeight                                   : 288 pixels\nDisplay aspect ratio                     : 2.40:1\nFrame rate mode                          : Constant\nFrame rate                               : 25.000 fps\nColor space                              : YUV\nChroma subsampling                       : 4:2:0\nBit depth                                : 8 bits\nScan type                                : Progressive\nBits/(Pixel*Frame)                       : 0.231\nStream size                              : 879 MiB (71%)\nWriting library                          : x264 core 125\n\n\nAudio\nID                                       : 2\nFormat                                   : AC-3\nFormat/Info                              : Audio Coding 3\nMode extension                           : CM (complete main)\nFormat settings, Endianness              : Big\nCodec ID                                 : A_AC3\nDuration                                 : 1h 45mn\nBit rate mode                            : Constant\nBit rate                                 : 448 Kbps\nChannel(s)                               : 6 channels\nChannel positions                        : Front: L C R, Side: L R, LFE\nSampling rate                            : 48.0 KHz\nBit depth                                : 16 bits\nCompression mode                         : Lossy\nStream size                              : 339 MiB (27%)\nLanguage                                 : English\nDefault                                  : Yes\nForced                                   : No\n\n\nDownload Support and screen shots:    &lt;a href=&quot;\nhttp://torrentii.com/Thread-X264-G-I-Joe-Retaliation-2013-DVDRip-X264-AAC-BiTo&quot; rel=&quot;nofollow&quot; target=&quot;_NEW&quot;&gt;\nhttp://torrentii.com/Thread-X264-G-I-Joe-Retaliation-2013-DVDRip-X264-AAC-BiTo&lt;/a&gt;\n\nAny comments on quality appreciated.\n\n=============================================================================\nIf you need support post here : http://www.torrentii.com\n=============================================================================","torrent":{"xt":"urn:btih:9d3834241a97e2cd9d2d05b30ecd6d781f2a72ca","amp;dn":"G+I+Joe+Retaliation+%282013%29+DVDRip+X264","amp;tr":["udp%3A%2F%2Ftracker.openbittorrent.com%3A80","udp%3A%2F%2Fopen.demonii.com%3A1337","udp%3A%2F%2Ftracker.coppersurfer.tk%3A6969","udp%3A%2F%2Fexodus.desync.com%3A6969"],"infoHash":"9d3834241a97e2cd9d2d05b30ecd6d781f2a72ca","infoHashBuffer":{"type":"Buffer","data":[157,56,52,36,26,151,226,205,157,45,5,179,14,205,109,120,31,42,114,202]},"announce":[],"urlList":[]}}